<svg width="100%" height="100%" class="96b-phone" xmlns="http://www.w3.org/2000/svg" viewBox="0 0 90 90" xmlns:xlink="http://www.w3.org/1999/xlink"><style></style><path class="st0" d="M67.3,90c-1.3-0.2-2.5-0.4-3.8-0.6c-4.9-0.9-9.5-2.8-13.9-4.9c-7.3-3.6-14.1-8-20.1-13.3C17.3,60.3,7.6,47.7,2.2,32.2 c-1.3-3.9-2.2-7.8-2-12c0.1-3.9,1.4-7.3,4.1-10.1C6.6,7.7,9,5.3,11.4,2.9C13,1.4,14.9,0.4,17,0c0.8,0,1.5,0,2.3,0 c2.9,0.6,4.9,2.4,6.9,4.4c3.5,3.6,7.1,7,10.5,10.7c3.2,3.4,3.2,8,0,11.5c-2.2,2.4-4.5,4.6-6.8,6.9c-0.5,0.5-0.7,0.8-0.3,1.5 c2.3,4.8,5.7,8.9,9.3,12.8c3.7,4,7.8,7.5,12.4,10.5c1.2,0.8,2.6,1.4,3.8,2.2c0.4,0.3,0.7,0.2,1-0.2c1.9-2,3.9-4,5.9-5.9 c1.2-1.2,2.4-2.2,4-2.8c3.5-1.2,6.5-0.4,9.1,2.1c3.9,3.8,7.8,7.7,11.6,11.6c3.9,3.9,4.2,8.6,0.6,12.7c-2.6,3-5.6,5.9-8.5,8.6 c-2,1.9-4.6,2.9-7.5,3.2c-0.2,0-0.4,0.1-0.6,0.2C69.6,90,68.5,90,67.3,90z M69.1,85.5c2.7,0.1,5.2-0.6,7.2-2.5 c2.6-2.5,5.2-5.2,7.7-7.9c1.9-2,1.8-4.2-0.1-6.2c-3.9-4.1-8-8-12-12c-1.6-1.5-3.6-1.6-5.4-0.3c-0.4,0.3-0.9,0.7-1.2,1.1 c-2.2,2.2-4.3,4.4-6.5,6.5c-1.5,1.4-3,1.7-4.8,0.8c-1.3-0.7-2.6-1.3-3.8-2c-5.5-3.3-10.4-7.5-14.8-12.2c-4.1-4.4-7.7-9-10.2-14.5 c-1.1-2.4-0.8-3.7,1-5.5c2.2-2.1,4.3-4.2,6.4-6.3c2.5-2.5,2.4-4.5,0-7.1c0,0-0.1-0.1-0.1-0.1c-3.6-3.6-7.2-7.2-10.8-10.8 c-0.6-0.6-1.2-1.1-2-1.4c-2-0.9-3.7-0.1-5.1,1.3c-2.3,2.2-4.6,4.5-6.8,6.9c-1,1-1.8,2.3-2.3,3.6c-1.2,2.9-0.9,6-0.3,9 c1.2,5.8,3.5,11.3,6.4,16.5c5.1,9.2,11.6,17.2,19.4,24.3c7.8,7,16.5,12.6,26.3,16.5C61,84.4,64.9,85.3,69.1,85.5z"></path></svg>