<svg width="100%" height="100%" class="96b-telegram" xmlns="http://www.w3.org/2000/svg" viewBox="0 0 90 90" xmlns:xlink="http://www.w3.org/1999/xlink"><style>
				.st1-96b{fill:none;stroke:#202020;stroke-width:20;stroke-linecap:round;stroke-linejoin:round;stroke-miterlimit:10;}
				.st2-96b{fill:#202020;stroke:#202020;stroke-width:0.75;stroke-linecap:round;stroke-linejoin:round;stroke-miterlimit:10;}
				</style><path class="st0" d="M35.9,66.6c-0.1-0.3-0.3-0.6-0.4-0.9c-1.6-5-3.1-10.1-4.7-15.1c-0.4-1.4-0.2-2,1-2.8C44.1,40.2,56.4,32.6,68.7,25 c0.5-0.3,1-0.7,1.5-0.1c0.5,0.7,0,1.1-0.5,1.5c-10.3,9.1-20.6,18.3-31,27.4c-0.8,0.7-1.1,1.4-1.2,2.4c-0.3,3.1-0.7,6.2-1,9.4 c0,0.3-0.2,0.7-0.2,1C36.1,66.6,36,66.6,35.9,66.6z M89.9,14.3c-1.4,6.6-2.8,13.3-4.2,19.9l-5,23.8C79.4,64.5,78,71,76.6,77.5 c-0.5,2.6-2,4.5-4,5.3c-0.6,0.2-1.3,0.4-2,0.4c-1.5,0-3-0.6-4.5-1.6c-4.4-3.2-8.8-6.5-13.1-9.6l-4.8-3.5L46.5,70 c-2.5,2.4-5,4.7-7.5,7c-1.1,1-2.2,1.7-3.3,1.9C33,79.6,30.5,78,29.6,75c-0.9-2.7-1.7-5.4-2.6-8.2l-2-6.2c-0.9-2.7-1.7-5.4-2.5-8.1 c-5.2-1.5-10.4-3.1-15.6-4.6l-2.6-0.8c-0.6-0.2-1.2-0.3-1.8-0.7c-1.5-0.8-2.4-2.3-2.5-4c-0.1-1.7,0.7-3.2,2.1-4.1 c0.7-0.5,1.5-0.8,2.3-1.1l0.4-0.1L81.1,7.5c1.5-0.6,3.2-1.1,5.2-0.3C89,8.3,90.5,11.2,89.9,14.3z M34.9,75.1c0.4-0.1,0.9-0.4,1.5-1 c2.5-2.3,4.9-4.6,7.5-7.1l4-3.8l7.7,5.6c4.2,3.1,8.5,6.3,12.9,9.4c1.1,0.8,2.1,1.1,2.8,0.8c0.7-0.3,1.3-1.2,1.6-2.4 c1.4-7,2.9-13.9,4.4-20.9l3.8-18.1c1.7-8.1,3.4-16.2,5.1-24.3c0.3-1.2-0.2-2.2-1.2-2.6c-0.5-0.2-1.1-0.2-2.3,0.3L5.8,41 c-0.6,0.2-1.1,0.4-1.6,0.7c-0.3,0.2-0.4,0.5-0.3,0.7c0,0.3,0.2,0.6,0.4,0.7c0.3,0.1,0.6,0.2,1,0.4l2,0.6c5.4,1.6,10.8,3.2,16.3,4.8 c1.3,0.4,2.2,1.2,2.6,2.6c0.8,2.6,1.6,5.2,2.4,7.8l2.3,7.2c0.8,2.5,1.6,5,2.4,7.4C33.6,74.9,34.1,75.3,34.9,75.1z"></path></svg>