<svg width="100%" height="100%" class="96b-livechat" xmlns="http://www.w3.org/2000/svg" viewBox="0 0 90 90" xmlns:xlink="http://www.w3.org/1999/xlink"><style></style><path class="st0" d="M5.8,83.5l-3.1-1L5,80.2c3.8-3.6,4.7-7.7,4.7-10.8C3.5,62.5,0,53.9,0,44.9C0,23.2,20.2,5.6,44.9,5.6 C69.8,5.6,90,23.1,90,44.9S69.8,84.3,44.9,84.3c-7.4,0-14.7-1.5-21.3-4.6c-2.5,1.7-7.4,4.7-13,4.7C9.1,84.4,7.4,84.1,5.8,83.5z M3.9,45.2c0,8.1,3.3,16,9.3,22.3l0.5,0.5v0.7c0.1,3.2-0.5,7.6-3.5,11.7c5.6,0.2,10.8-3.7,11.9-4.6l1-0.8l1.1,0.6 c6.3,3.2,13.4,4.8,20.7,4.8c22.6,0,41-16,41-35.5S67.6,9.6,44.9,9.6C22.4,9.6,4,25.5,3.9,45.2z M66.5,46.5c0.5,0,1.2-0.3,1.4-0.7 c0.2-0.5,0.1-1.3-0.2-1.7c-0.3-0.4-1-0.6-1.5-0.6c-1.8-0.1-3.5,0-5.3,0c0-1.5,0-2.8,0-4.2c1.9,0,3.8,0,5.6,0c1,0,1.6-0.6,1.6-1.6 c0-0.9-0.6-1.6-1.6-1.6c-2.4,0-4.8,0-7.2,0c-1,0-1.6,0.6-1.6,1.6c0,4.9,0,9.7,0,14.6c0,0.9,0.5,1.6,1.4,1.6c2.6,0.1,5.1,0.1,7.7,0 c0.9,0,1.4-0.7,1.4-1.6c0-1-0.6-1.5-1.6-1.6c-1.5-0.1-3,0-4.6,0c-0.4,0-0.8,0-1.2-0.1c0-1.4,0-2.7,0-4.1 C62.8,46.5,64.6,46.5,66.5,46.5z M47.8,46.1c-0.9-2.9-1.9-5.8-2.8-8.7c-0.3-1-1.1-1.4-2-1.1c-0.8,0.2-1.3,1.1-0.9,2.1 c1.6,4.8,3.1,9.6,4.7,14.5c0.3,0.8,0.9,1.2,1.7,1.1c0.9-0.1,1.2-0.8,1.5-1.6c1.5-4.5,2.9-8.9,4.4-13.4c0.1-0.2,0.2-0.5,0.2-0.8 c0-0.9-0.3-1.6-1.3-1.8c-0.9-0.2-1.6,0.2-1.9,1.1c-0.2,0.5-0.3,1.1-0.5,1.6c-0.9,2.7-1.8,5.4-2.7,8.3C48,46.8,47.9,46.4,47.8,46.1z M25.1,49.4c0-3.8,0-7.6,0-11.5c0-1.2-0.6-1.9-1.6-1.9c-0.9,0-1.6,0.7-1.6,1.9c0,4.7,0,9.4,0,14c0,1.4,0.5,1.9,1.9,1.9 c2.2,0,4.5,0,6.7,0c1.2,0,1.9-0.6,1.9-1.6c0-0.9-0.7-1.5-1.9-1.5c-1.7,0-3.5,0-5.4,0C25.1,50.2,25.1,49.8,25.1,49.4z M35.5,52.2 c0,1.1,0.6,1.8,1.5,1.8c1,0,1.6-0.7,1.6-1.8c0-4.7,0-9.4,0-14c0-1.2-0.6-1.9-1.5-1.9c-1,0-1.6,0.6-1.6,1.9c0,2.3,0,4.6,0,6.9 C35.5,47.4,35.5,49.8,35.5,52.2z"></path></svg>