<svg width="100%" height="100%" class="96b-email" xmlns="http://www.w3.org/2000/svg" viewBox="0 0 90 90" xmlns:xlink="http://www.w3.org/1999/xlink"><style></style><path class="st0" d="M88.6,17.7c-0.7-1.3-1.7-2.4-2.9-3.3c-1.8-1.3-3.9-2.1-6.3-2.1H10.5c-2.4,0-4.5,0.8-6.3,2.1c-1.2,0.9-2.2,2-2.9,3.3 c-0.9,1.5-1.3,3.2-1.3,5.1v44.4c0,2,0.6,3.8,1.5,5.4c0.8,1.3,1.8,2.3,3,3.2c1.7,1.2,3.8,1.9,6,1.9h68.9c2.2,0,4.3-0.7,6-1.9 c1.2-0.8,2.2-1.9,3-3.2c1-1.6,1.5-3.4,1.5-5.4V22.8C89.9,21,89.4,19.3,88.6,17.7z M10.5,16.7h68.9c1,0,1.9,0.2,2.7,0.6L47.6,47.2 c-0.7,0.6-1.6,0.9-2.5,0.9c-0.9,0-1.8-0.3-2.5-0.9L8,17.3C8.6,16.9,9.5,16.7,10.5,16.7z M4.4,67.3V22.9c0-0.8,0.2-1.7,0.5-2.4 l25.1,22.6L4.9,69.7C4.6,68.9,4.4,68.1,4.4,67.3z M79.5,73.4H10.5c-1,0-1.9-0.2-2.7-0.6l25.5-27.1l6.4,5c1.5,1.1,3.3,1.8,5.2,1.8 c1.9,0,3.7-0.6,5.2-1.8l6.4-5L82,72.8C81.4,73.2,80.5,73.4,79.5,73.4z M60.1,43l25.1-22.6c0.3,0.7,0.5,1.5,0.5,2.4v44.4 c0,0.8-0.2,1.7-0.5,2.4L60.1,43z"></path></svg>