<?xml version="1.0" encoding="utf-8"?>
<!-- Generator: Adobe Illustrator 25.2.1, SVG Export Plug-In . SVG Version: 6.00 Build 0)  -->
<svg version="1.1" id="Capa_1" xmlns="http://www.w3.org/2000/svg" xmlns:xlink="http://www.w3.org/1999/xlink" x="0px" y="0px"
	 viewBox="0 0 512 512" style="enable-background:new 0 0 512 512;" xml:space="preserve">
<style type="text/css">
	.st0{fill:#FFFFFF;}
	.st1{fill:#0778E9;}
</style>
<path class="st0" d="M256,32C114.9,32,0,132.5,0,256c0,50.6,19.3,99.2,54.8,138.2L3.9,453.6c-4.1,4.7-5,11.4-2.4,17.1
	c2.6,5.7,8.3,9.3,14.5,9.3h240c141.2,0,256-100.5,256-224S397.2,32,256,32z"/>
<path class="st1" d="M229.8,316.9c35.2,0,68.3-0.2,101.2,0c18.4,0.2,28.4,7.9,30.3,22.6c2.1,18.4-8.6,30.8-28.7,31
	c-37.8,0.5-75.3,0.2-113,0.2c-11,0-21.7,0.5-32.6-0.2c-13.5-0.7-26.8-3.5-33.3-17.5s-1.9-26.6,7-38c35.9-45.7,72-91.6,108.2-137.3
	c2.1-2.8,4.2-5.6,6.3-8.2c-2.3-4-5.6-2.1-8.4-2.3c-25.2-0.2-50.6,0-75.8-0.2c-5.8,0-11.7-0.7-17.2-1.9c-13.3-3-21.4-16.3-18.4-29.4
	c2.1-8.9,9.1-16.1,17.9-18.2c5.6-1.4,11.4-2.1,17.2-2.1c41.5-0.2,83.2-0.2,124.7,0c7.5-0.2,14.7,0.7,21.9,2.6
	c15.9,5.4,22.6,20,16.3,35.4c-5.6,13.3-14.5,24.7-23.3,36.1c-30.5,38.9-61.1,77.6-91.6,116.1C235.8,308.8,233.5,311.8,229.8,316.9
	L229.8,316.9z"/>
</svg>
